<svg width="1024" height="1024" viewBox="0 0 1024 1024" fill="none" xmlns="http://www.w3.org/2000/svg">
<g clip-path="url(#clip0_591_2)">
<path d="M488.88 372.773C488.546 375.08 488.44 377.42 488.56 379.793C488.68 382.233 488.45 383.563 487.13 385.383C482.61 391.643 478.173 397.957 473.82 404.323C473.693 404.503 473.536 404.577 473.35 404.543" stroke="#A1CFEB" stroke-width="2"/>
<path d="M473.35 404.542C457.996 390.429 440.176 381.785 419.89 378.612C398.583 375.272 378.3 378.005 359.04 386.812C348.513 391.625 339.466 397.739 331.9 405.152C308.633 427.965 298.24 455.832 300.72 488.752C301.526 499.532 304.126 510.102 308.52 520.462C316.433 539.142 328.343 554.485 344.25 566.492C348.336 569.579 353.36 573.009 359.32 576.782" stroke="#FCAD9A" stroke-width="2"/>
<path d="M359.318 576.781L359.508 577.421" stroke="#A1CFEB" stroke-width="2"/>
<path d="M359.509 577.422L255.869 733.422C255.818 733.496 255.787 733.583 255.782 733.673C255.777 733.763 255.796 733.853 255.839 733.932C255.881 734.012 255.945 734.078 256.022 734.124C256.1 734.17 256.189 734.193 256.279 734.192C261.353 734.152 269.779 734.045 281.559 733.872C310.586 733.439 337.696 726.349 362.889 712.602C375.943 705.475 387.389 697.512 397.229 688.712C410.203 677.105 421.463 664.089 431.009 649.662C431.236 649.322 431.466 649.322 431.699 649.662L487.659 732.712C487.879 733.039 488.186 733.202 488.579 733.202H519.949C519.968 733.202 519.986 733.197 520.002 733.187C520.018 733.177 520.03 733.163 520.039 733.147C520.047 733.13 520.05 733.111 520.049 733.093C520.047 733.074 520.04 733.057 520.029 733.042L448.459 626.832C448.314 626.616 448.237 626.362 448.237 626.102C448.237 625.842 448.314 625.588 448.459 625.372L470.239 592.862" stroke="#808080" stroke-width="2"/>
<path d="M470.238 592.862C470.352 592.262 471.082 591.942 472.428 591.902" stroke="#A1CFEB" stroke-width="2"/>
<path d="M472.43 591.902C474.69 591.648 476.853 591.742 478.92 592.182C479.26 592.255 479.523 592.435 479.71 592.722L573.78 733.292C573.897 733.464 574.055 733.606 574.24 733.703C574.425 733.801 574.631 733.852 574.84 733.852H606.06C606.102 733.852 606.143 733.84 606.179 733.819C606.214 733.797 606.244 733.766 606.263 733.729C606.283 733.692 606.292 733.65 606.29 733.608C606.287 733.567 606.273 733.526 606.25 733.492L510.34 591.162C510.226 590.995 510.27 590.902 510.47 590.882C533.61 588.768 554.803 581.548 574.05 569.222C579.563 565.688 584.836 561.625 589.87 557.032C615.65 533.485 630.116 504.135 633.27 468.982C633.663 464.595 633.856 457.938 633.85 449.012C633.81 419.038 633.81 396.975 633.85 382.822C633.85 382.657 633.915 382.499 634.031 382.383C634.148 382.267 634.305 382.202 634.47 382.202H767.5C767.579 382.202 767.656 382.182 767.725 382.143C767.794 382.105 767.852 382.049 767.893 381.982C767.934 381.914 767.957 381.838 767.96 381.759C767.963 381.68 767.946 381.602 767.91 381.532C754.963 355.445 735.653 336.382 709.98 324.342C693.29 316.522 674.6 312.642 656.08 312.402C645.54 312.262 635.723 312.262 626.63 312.402C626.327 312.408 626.031 312.301 625.8 312.102C625.58 311.922 624.923 311.348 623.83 310.382C610.07 298.268 594.19 291.722 576.19 290.742C569.37 290.362 562.956 290.755 556.95 291.922C532.66 296.612 512.27 310.772 500 332.282C493.066 344.422 489.36 357.918 488.88 372.772" stroke="#808080" stroke-width="2"/>
<path d="M472.429 591.903C472.129 591.777 472.012 591.45 472.079 590.923C472.119 590.623 472.245 590.323 472.459 590.023C484.825 572.317 495.295 555.367 503.869 539.173C510.995 525.72 516.072 511.573 519.099 496.733C527.239 456.923 517.699 417.173 491.559 386.153C490.945 385.42 490.229 384.44 489.409 383.213C489.222 382.933 489.125 382.63 489.119 382.303L488.879 372.773" stroke="#22506B" stroke-width="2"/>
<path d="M470.24 592.862C459.133 593.275 448.136 593.472 437.25 593.452C427.016 593.432 420.35 593.342 417.25 593.182C396.92 592.102 377.98 586.512 359.51 577.422" stroke="#22506B" stroke-width="2"/>
<path d="M359.318 576.783C370.858 559.303 382.472 541.89 394.158 524.543C397.638 519.37 401.328 513.823 405.228 507.903C415.582 492.196 428.942 472.163 445.308 447.803C449.088 442.183 458.355 428.183 473.108 405.803C473.242 405.61 473.318 405.41 473.338 405.203C473.372 404.923 473.375 404.703 473.348 404.543" stroke="#9E7D86" stroke-width="2"/>
<path d="M633.489 346.182C633.489 341.495 632.566 336.854 630.773 332.524C628.979 328.194 626.35 324.26 623.036 320.946C619.722 317.631 615.787 315.003 611.457 313.209C607.127 311.415 602.486 310.492 597.799 310.492C588.334 310.492 579.256 314.252 572.563 320.946C565.87 327.639 562.109 336.717 562.109 346.182C562.109 355.648 565.87 364.726 572.563 371.419C579.256 378.112 588.334 381.872 597.799 381.872C602.486 381.872 607.127 380.949 611.457 379.155C615.787 377.362 619.722 374.733 623.036 371.419C626.35 368.105 628.979 364.17 630.773 359.84C632.566 355.51 633.489 350.869 633.489 346.182Z" stroke="#808080" stroke-width="2"/>
<path d="M615.211 359.812C616.984 357.575 618.294 355.005 619.064 352.25C619.834 349.495 620.051 346.608 619.701 343.755C619.351 340.902 618.441 338.137 617.024 335.62C615.607 333.103 613.71 330.882 611.442 329.084C609.174 327.287 606.579 325.947 603.804 325.142C601.03 324.338 598.131 324.083 595.273 324.394C592.416 324.705 589.655 325.575 587.148 326.954C584.642 328.333 582.439 330.194 580.666 332.432C578.893 334.669 577.583 337.239 576.813 339.994C576.043 342.749 575.826 345.636 576.176 348.489C576.526 351.342 577.436 354.106 578.853 356.624C580.27 359.141 582.166 361.362 584.435 363.159C586.703 364.957 589.298 366.297 592.072 367.101C594.847 367.906 597.746 368.16 600.603 367.85C603.461 367.539 606.222 366.669 608.729 365.29C611.235 363.911 613.438 362.049 615.211 359.812Z" stroke="#FCAD9A" stroke-width="2"/>
<path d="M472.431 591.902C472.131 591.775 472.014 591.448 472.081 590.922C472.121 590.622 472.247 590.322 472.461 590.022C484.827 572.315 495.297 555.365 503.871 539.172C510.997 525.718 516.074 511.572 519.101 496.732C527.241 456.922 517.701 417.172 491.561 386.152C490.947 385.418 490.231 384.438 489.411 383.212C489.224 382.932 489.127 382.628 489.121 382.302L488.881 372.772C489.361 357.918 493.067 344.422 500.001 332.282C512.271 310.772 532.661 296.612 556.951 291.922C562.957 290.755 569.371 290.362 576.191 290.742C594.191 291.722 610.071 298.268 623.831 310.382C624.924 311.348 625.581 311.922 625.801 312.102C626.032 312.301 626.328 312.408 626.631 312.402C635.724 312.262 645.541 312.262 656.081 312.402C674.601 312.642 693.291 316.522 709.981 324.342C735.654 336.382 754.964 355.445 767.911 381.532C767.947 381.602 767.964 381.68 767.961 381.759C767.958 381.838 767.935 381.914 767.894 381.982C767.853 382.049 767.795 382.105 767.726 382.143C767.657 382.182 767.58 382.202 767.501 382.202H634.471C634.306 382.202 634.149 382.267 634.032 382.383C633.916 382.499 633.851 382.657 633.851 382.822C633.811 396.975 633.811 419.038 633.851 449.012C633.857 457.938 633.664 464.595 633.271 468.982C630.117 504.135 615.651 533.485 589.871 557.032C584.837 561.625 579.564 565.688 574.051 569.222C554.804 581.548 533.611 588.768 510.471 590.882C510.271 590.902 510.227 590.995 510.341 591.162L606.251 733.492C606.274 733.526 606.288 733.567 606.291 733.608C606.293 733.65 606.284 733.692 606.264 733.729C606.245 733.766 606.215 733.797 606.18 733.819C606.144 733.84 606.103 733.852 606.061 733.852H574.841C574.632 733.852 574.426 733.801 574.241 733.703C574.056 733.606 573.898 733.464 573.781 733.292L479.711 592.722C479.524 592.435 479.261 592.255 478.921 592.182C476.854 591.742 474.691 591.648 472.431 591.902ZM633.491 346.182C633.491 341.495 632.568 336.854 630.774 332.524C628.98 328.194 626.351 324.259 623.037 320.945C619.723 317.631 615.789 315.002 611.459 313.208C607.129 311.415 602.488 310.492 597.801 310.492C588.335 310.492 579.257 314.252 572.564 320.945C565.871 327.638 562.111 336.716 562.111 346.182C562.111 355.647 565.871 364.725 572.564 371.418C579.257 378.111 588.335 381.872 597.801 381.872C602.488 381.872 607.129 380.948 611.459 379.155C615.789 377.361 619.723 374.732 623.037 371.418C626.351 368.104 628.98 364.17 630.774 359.84C632.568 355.509 633.491 350.868 633.491 346.182Z" fill="#010000"/>
<path d="M584.437 363.156C593.976 370.717 607.755 369.218 615.213 359.808C622.671 350.399 620.984 336.642 611.444 329.081C601.905 321.52 588.126 323.019 580.668 332.428C573.21 341.838 574.898 355.595 584.437 363.156Z" fill="#F95B35"/>
<path d="M472.43 591.9C471.084 591.94 470.354 592.26 470.24 592.86C459.134 593.273 448.137 593.47 437.25 593.45C427.017 593.43 420.35 593.34 417.25 593.18C396.92 592.1 377.98 586.51 359.51 577.42L359.32 576.78C370.86 559.3 382.474 541.886 394.16 524.54C397.64 519.366 401.33 513.82 405.23 507.9C415.584 492.193 428.944 472.16 445.31 447.8C449.09 442.18 458.357 428.18 473.11 405.8C473.244 405.606 473.32 405.406 473.34 405.2C473.374 404.92 473.377 404.7 473.35 404.54C473.537 404.573 473.694 404.5 473.82 404.32C478.174 397.953 482.61 391.64 487.13 385.38C488.45 383.56 488.68 382.23 488.56 379.79C488.44 377.416 488.547 375.076 488.88 372.77L489.12 382.3C489.127 382.626 489.224 382.93 489.41 383.21C490.23 384.436 490.947 385.416 491.56 386.15C517.7 417.17 527.24 456.92 519.1 496.73C516.074 511.57 510.997 525.716 503.87 539.17C495.297 555.363 484.827 572.313 472.46 590.02C472.247 590.32 472.12 590.62 472.08 590.92C472.014 591.446 472.13 591.773 472.43 591.9Z" fill="#439FD6"/>
<path d="M473.35 404.538C473.376 404.698 473.373 404.918 473.34 405.198C473.32 405.405 473.243 405.605 473.11 405.798C458.356 428.178 449.09 442.178 445.31 447.798C428.943 472.158 415.583 492.191 405.23 507.898C401.33 513.818 397.64 519.365 394.16 524.538C382.473 541.885 370.86 559.298 359.32 576.778C353.36 573.005 348.336 569.575 344.25 566.488C328.343 554.481 316.433 539.138 308.52 520.458C304.126 510.098 301.526 499.528 300.72 488.748C298.24 455.828 308.633 427.961 331.9 405.148C339.466 397.735 348.513 391.621 359.04 386.808C378.3 378.001 398.583 375.268 419.89 378.608C440.176 381.781 457.996 390.425 473.35 404.538Z" fill="#F95B35"/>
<path d="M359.509 577.422C377.979 586.512 396.919 592.102 417.249 593.182C420.349 593.342 427.016 593.432 437.249 593.452C448.136 593.472 459.132 593.275 470.239 592.862L448.459 625.372C448.314 625.588 448.237 625.842 448.237 626.102C448.237 626.362 448.314 626.616 448.459 626.832L520.029 733.042C520.04 733.057 520.047 733.074 520.049 733.093C520.05 733.111 520.047 733.13 520.039 733.147C520.03 733.163 520.018 733.177 520.002 733.187C519.986 733.197 519.968 733.202 519.949 733.202H488.579C488.186 733.202 487.879 733.039 487.659 732.712L431.699 649.662C431.466 649.322 431.236 649.322 431.009 649.662C421.463 664.089 410.203 677.105 397.229 688.712C387.389 697.512 375.943 705.475 362.889 712.602C337.696 726.349 310.586 733.439 281.559 733.872C269.779 734.045 261.353 734.152 256.279 734.192C256.189 734.193 256.1 734.17 256.022 734.124C255.945 734.078 255.881 734.012 255.839 733.932C255.796 733.853 255.777 733.763 255.782 733.673C255.787 733.583 255.818 733.496 255.869 733.422L359.509 577.422Z" fill="#010000"/>
</g>
<defs>
<clipPath id="clip0_591_2">
<rect width="1024" height="1024" fill="white"/>
</clipPath>
</defs>
</svg>
